<?xml version="1.0" encoding="UTF-8" standalone="no"?>
<svg id="svg4506" xmlns:rdf="http://www.w3.org/1999/02/22-rdf-syntax-ns#" xmlns="http://www.w3.org/2000/svg" height="512" width="512" version="1.1" xmlns:cc="http://creativecommons.org/ns#" xmlns:dc="http://purl.org/dc/elements/1.1/">
 <g id="layer1" transform="translate(0 -540.36)">
  <g id="g4756" fill-rule="evenodd" transform="matrix(1.7917 0 0 1.7917 -1131.8 -1464.7)">
   <path id="path3519" d="m774.57 1119.7c78.604 0 142.33 63.722 142.33 142.33 0 78.604-63.722 142.33-142.33 142.33-78.604 0-142.33-63.722-142.33-142.33 0-78.604 63.721-142.33 142.33-142.33" fill="#fff"/>
   <path id="path3521" d="m774.57 1127.5c-18.01 0-35.771 3.5503-52.362 10.568-15.97 6.7548-30.506 16.576-42.766 28.835-12.26 12.26-22.08 26.796-28.836 42.766-7.0171 16.591-10.568 34.352-10.568 52.362s3.5504 35.771 10.568 52.362c6.755 15.97 16.576 30.506 28.836 42.766 12.26 12.259 26.796 22.08 42.766 28.835 16.591 7.0171 34.352 10.568 52.362 10.568s35.771-3.5504 52.362-10.568c15.97-6.755 30.506-16.576 42.766-28.835 12.26-12.26 22.08-26.796 28.836-42.766 7.0172-16.591 10.568-34.352 10.568-52.362s-3.5503-35.771-10.568-52.362c-6.755-15.97-16.576-30.506-28.836-42.766s-26.796-22.081-42.766-28.835c-16.591-7.0173-34.352-10.568-52.362-10.568zm0 7.239c-17.033 0-33.851 3.3591-49.542 9.996-15.107 6.39-28.869 15.69-40.467 27.287s-20.897 25.36-27.287 40.467c-6.6366 15.691-9.996 32.509-9.996 49.542s3.359 33.851 9.996 49.542c6.39 15.107 15.689 28.869 27.287 40.467 11.597 11.598 25.36 20.897 40.467 27.287 15.691 6.637 32.509 9.9961 49.542 9.9961s33.851-3.3591 49.542-9.9961c15.107-6.39 28.87-15.689 40.467-27.287 11.598-11.597 20.897-25.359 27.287-40.467 6.637-15.691 9.996-32.509 9.996-49.542s-3.3593-33.851-9.996-49.542c-6.39-15.107-15.689-28.87-27.287-40.467-11.597-11.598-25.36-20.897-40.467-27.287-15.691-6.6368-32.509-9.996-49.542-9.996" fill="#201f1f"/>
   <path id="path3523" d="m724.36 1217.6h-10.082l-16.22 95.783-16.658-95.783h-9.6438l20.822 110.25h10.74l21.042-110.25zm144 110.25v-8.7671c-2.8491 0.2189-5.4792 0.4382-8.3285 0.4382-1.9728 0-8.3292 0-8.3292-6.3563v-86.796h16.658v-8.7671h-16.658v-28.494h-9.4249v28.494h-11.616v8.7671h11.616v88.988c0 3.5067 0.2194 6.137 2.6306 8.9865 4.1644 4.3833 11.397 4.3833 23.452 3.5067zm-51.069 0v-154.74h-9.2055v154.74h9.2055zm-71.234-65.262v-14.739c0-7.014 0-13.809 6.5754-18.631 3.9455-3.0687 8.7672-3.0687 10.521-3.0687 4.6028 0 7.4523 1.3154 9.2055 2.6303 5.6988 3.9451 6.3564 9.8631 6.3564 16.22v16.257l9.4249-0.7246v-16.409c0-4.3838 0-8.3293-1.5343-12.713-1.096-2.8496-2.8492-5.9181-5.0411-8.11-5.0414-4.822-11.617-6.3562-18.411-6.3562-12.274 0-18.849 5.4796-21.918 9.8635-4.1645 5.4794-4.6028 10.082-4.6028 16.658v30.065l9.4248-10.942zm32.658 37.645c0 5.0412-0.6576 7.452-1.5343 9.6439-1.5342 3.7261-5.26 9.4248-15.124 9.4248-7.452 0-13.37-3.5068-15.343-10.959-0.6576-2.8493-0.6576-6.137-0.6576-7.233v-17.084l-9.4248 0.6864v16.617c0 4.3837 0.2193 9.2058 1.9725 13.37 3.7262 9.4249 14.028 13.589 23.452 13.589 4.822 0 19.946-1.315 24.548-17.316 1.3153-4.3834 1.5343-9.2055 1.5343-14.246v-24.989l-9.4249 10.942v17.554z" fill="#201f1f"/>
   <path id="path3525" d="m736.3 1317.8-17.101 28.138 0.1325 0.494 20.394-23.677c-1.3368-1.4644-2.4952-3.1143-3.4256-4.955zm52.117-90.633 17.165-28.001-0.1024-0.3823-20.249 23.508c1.2268 1.4744 2.2971 3.1465 3.1863 4.8752zm-23.63 38.548 10.548-17.207v-3.5164c0-3.3626-0.1209-6.693-1.4826-9.4886l-24.406 28.334-15.2 17.647 25.241-1.8386-10.041 16.522v4.934c0 2.1072 0.091 4.359 0.5587 6.4187 0.2254 0.8386 0.511 1.6083 0.8522 2.3113l35.407-41.107 4.3005-4.9928-15.23 1.1711-10.548 0.8114z" fill="#201f1f"/>
  </g>
 </g>
</svg>
