<?xml version="1.0" encoding="UTF-8" standalone="no"?>
<!-- Created with Inkscape (http://www.inkscape.org/) -->

<svg
   xmlns:dc="http://purl.org/dc/elements/1.1/"
   xmlns:cc="http://creativecommons.org/ns#"
   xmlns:rdf="http://www.w3.org/1999/02/22-rdf-syntax-ns#"
   xmlns:svg="http://www.w3.org/2000/svg"
   xmlns="http://www.w3.org/2000/svg"
   xmlns:sodipodi="http://sodipodi.sourceforge.net/DTD/sodipodi-0.dtd"
   xmlns:inkscape="http://www.inkscape.org/namespaces/inkscape"
   width="512"
   height="512"
   id="svg4506"
   version="1.1"
   inkscape:version="0.48.3.1 r9886"
   sodipodi:docname="logo-black.svg">
  <defs
     id="defs4508">
    <linearGradient
       id="linearGradient3497-2"
       spreadMethod="pad"
       gradientTransform="matrix(227.72137,-227.72137,227.72137,227.72137,69.9165,701.5748)"
       gradientUnits="userSpaceOnUse"
       y2="0"
       x2="0.97000003"
       y1="0"
       x1="0.029999999">
      <stop
         id="stop3499-1"
         offset="0"
         style="stop-opacity:1;stop-color:#0098db" />
      <stop
         id="stop3501-4"
         offset="1"
         style="stop-opacity:1;stop-color:#0098db" />
    </linearGradient>
  </defs>
  <sodipodi:namedview
     id="base"
     pagecolor="#ffffff"
     bordercolor="#666666"
     borderopacity="1.0"
     inkscape:pageopacity="0.0"
     inkscape:pageshadow="2"
     inkscape:zoom="0.35"
     inkscape:cx="375"
     inkscape:cy="520"
     inkscape:document-units="px"
     inkscape:current-layer="layer1"
     showgrid="false"
     inkscape:window-width="1366"
     inkscape:window-height="744"
     inkscape:window-x="0"
     inkscape:window-y="24"
     inkscape:window-maximized="1" />
  <metadata
     id="metadata4511">
    <rdf:RDF>
      <cc:Work
         rdf:about="">
        <dc:format>image/svg+xml</dc:format>
        <dc:type
           rdf:resource="http://purl.org/dc/dcmitype/StillImage" />
        <dc:title></dc:title>
      </cc:Work>
    </rdf:RDF>
  </metadata>
  <g
     inkscape:label="Layer 1"
     inkscape:groupmode="layer"
     id="layer1"
     transform="translate(0,-540.36218)">
    <g
       id="g4756"
       transform="matrix(1.7916645,0,0,1.7916639,-1131.7722,-1464.7354)">
      <path
         id="path3519"
         style="fill:#ffffff;fill-opacity:1;fill-rule:evenodd;stroke:none"
         d="m 774.5714,1119.6841 c 78.6044,0 142.3258,63.7218 142.3258,142.3258 0,78.6041 -63.7218,142.3258 -142.3258,142.3258 -78.604,0 -142.3257,-63.7217 -142.3257,-142.3258 0,-78.604 63.7214,-142.3258 142.3257,-142.3258"
         inkscape:connector-curvature="0" />
      <path
         id="path3521"
         style="fill:#201f1f;fill-opacity:1;fill-rule:evenodd;stroke:none"
         d="m 774.5714,1127.4794 c -18.0102,0 -35.7711,3.5503 -52.3618,10.5676 -15.9702,6.7548 -30.5058,16.5759 -42.7657,28.8354 -12.2595,12.2598 -22.0805,26.7956 -28.8355,42.7656 -7.0171,16.5909 -10.5675,34.352 -10.5675,52.3619 0,18.0103 3.5504,35.7711 10.5675,52.362 6.755,15.97 16.576,30.5057 28.8355,42.7656 12.2599,12.2594 26.7955,22.0804 42.7657,28.8354 16.5907,7.0171 34.3516,10.5675 52.3618,10.5675 18.0103,0 35.7712,-3.5504 52.3619,-10.5675 15.9701,-6.755 30.5058,-16.576 42.7656,-28.8354 12.2595,-12.2599 22.0805,-26.7956 28.8355,-42.7656 7.0172,-16.5909 10.5675,-34.3517 10.5675,-52.362 0,-18.0099 -3.5503,-35.771 -10.5675,-52.3619 -6.755,-15.97 -16.576,-30.5058 -28.8355,-42.7656 -12.2598,-12.2595 -26.7955,-22.0806 -42.7656,-28.8354 -16.5907,-7.0173 -34.3516,-10.5676 -52.3619,-10.5676 z m 0,7.239 c -17.0326,0 -33.8506,3.3591 -49.5418,9.996 -15.1072,6.39 -28.8694,15.6895 -40.4667,27.287 -11.5976,11.5972 -20.897,25.3595 -27.287,40.4667 -6.6366,15.6909 -9.996,32.5091 -9.996,49.5418 0,17.0327 3.359,33.8506 9.996,49.5418 6.39,15.1073 15.6894,28.8694 27.287,40.4667 11.5973,11.5976 25.3595,20.897 40.4667,27.287 15.6912,6.637 32.5092,9.9961 49.5418,9.9961 17.0327,0 33.8507,-3.3591 49.5418,-9.9961 15.1072,-6.39 28.8695,-15.6894 40.4667,-27.287 11.5977,-11.5973 20.897,-25.3594 27.287,-40.4667 6.637,-15.6912 9.996,-32.5091 9.996,-49.5418 0,-17.0327 -3.3593,-33.8509 -9.996,-49.5418 -6.39,-15.1072 -15.6893,-28.8695 -27.287,-40.4667 -11.5972,-11.5975 -25.3595,-20.897 -40.4667,-27.2871 -15.6911,-6.6368 -32.5091,-9.996 -49.5418,-9.996"
         inkscape:connector-curvature="0" />
      <path
         id="path3523"
         style="fill:#201f1f;fill-opacity:1;fill-rule:evenodd;stroke:none"
         d="m 724.3588,1217.6201 -10.0824,0 -16.2195,95.7826 -16.6578,-95.7826 -9.6438,0 20.8223,110.2485 10.7397,0 21.0415,-110.2485 z m 144.0021,110.2485 0,-8.7671 c -2.8491,0.2189 -5.4792,0.4382 -8.3285,0.4382 -1.9728,0 -8.3292,0 -8.3292,-6.3563 l 0,-86.7962 16.6577,0 0,-8.7671 -16.6577,0 0,-28.4935 -9.4249,0 0,28.4935 -11.6164,0 0,8.7671 11.6164,0 0,88.9882 c 0,3.5067 0.2194,6.137 2.6306,8.9865 4.1644,4.3833 11.3974,4.3833 23.452,3.5067 z m -51.0692,0 0,-154.7422 -9.2055,0 0,154.7422 9.2055,0 z m -71.234,-65.262 0,-14.7391 c 0,-7.014 0,-13.8086 6.5754,-18.6306 3.9455,-3.0687 8.7672,-3.0687 10.5207,-3.0687 4.6028,0 7.4523,1.3154 9.2055,2.6303 5.6988,3.9451 6.3564,9.8631 6.3564,16.2195 l 0,16.2567 9.4249,-0.7246 0,-16.4087 c 0,-4.3838 0,-8.3293 -1.5343,-12.7127 -1.096,-2.8496 -2.8492,-5.9181 -5.0411,-8.11 -5.0414,-4.822 -11.6168,-6.3562 -18.4114,-6.3562 -12.274,0 -18.8492,5.4796 -21.9181,9.8635 -4.1645,5.4794 -4.6028,10.0824 -4.6028,16.6577 l 0,30.065 9.4248,-10.9421 z m 32.658,37.6451 c 0,5.0412 -0.6576,7.452 -1.5343,9.6439 -1.5342,3.7261 -5.26,9.4248 -15.1235,9.4248 -7.452,0 -13.37,-3.5068 -15.3426,-10.959 -0.6576,-2.8493 -0.6576,-6.137 -0.6576,-7.233 l 0,-17.0844 -9.4248,0.6864 0,16.617 c 0,4.3837 0.2193,9.2058 1.9725,13.3702 3.7262,9.4249 14.0277,13.5894 23.4525,13.5894 4.822,0 19.9457,-1.315 24.5484,-17.3155 1.3153,-4.3834 1.5343,-9.2055 1.5343,-14.2465 l 0,-24.9893 -9.4249,10.9422 0,17.5538 z"
         inkscape:connector-curvature="0" />
      <path
         id="path3525"
         style="fill:#201f1f;fill-opacity:1;fill-rule:evenodd;stroke:none"
         d="m 736.2963,1317.8269 -17.1007,28.1381 0.1325,0.494 20.3938,-23.6771 c -1.3368,-1.4644 -2.4952,-3.1143 -3.4256,-4.955 z m 52.1168,-90.6332 17.1647,-28.001 -0.1024,-0.3823 -20.2486,23.5081 c 1.2268,1.4744 2.2971,3.1465 3.1863,4.8752 z m -23.6304,38.5477 10.5481,-17.207 0,-3.5164 c 0,-3.3626 -0.1209,-6.693 -1.4826,-9.4886 l -24.4055,28.334 -15.2001,17.6471 25.2411,-1.8386 -10.041,16.5225 0,4.934 c 0,2.1072 0.091,4.359 0.5587,6.4187 0.2254,0.8386 0.511,1.6083 0.8522,2.3113 l 35.4068,-41.1067 4.3005,-4.9928 -15.2301,1.1711 -10.5481,0.8114 z"
         inkscape:connector-curvature="0" />
    </g>
  </g>
</svg>
