<?xml version="1.0" encoding="UTF-8" standalone="no"?>
<!-- Created with Inkscape (http://www.inkscape.org/) -->

<svg
   xmlns:dc="http://purl.org/dc/elements/1.1/"
   xmlns:cc="http://creativecommons.org/ns#"
   xmlns:rdf="http://www.w3.org/1999/02/22-rdf-syntax-ns#"
   xmlns:svg="http://www.w3.org/2000/svg"
   xmlns="http://www.w3.org/2000/svg"
   xmlns:sodipodi="http://sodipodi.sourceforge.net/DTD/sodipodi-0.dtd"
   xmlns:inkscape="http://www.inkscape.org/namespaces/inkscape"
   width="512"
   height="512"
   id="svg3166"
   version="1.1"
   inkscape:version="0.48.3.1 r9886"
   sodipodi:docname="New document 6">
  <defs
     id="defs3168">
    <linearGradient
       id="linearGradient3030"
       spreadMethod="pad"
       gradientTransform="matrix(227.72137,-227.72137,227.72137,227.72137,69.9165,701.5748)"
       gradientUnits="userSpaceOnUse"
       y2="0"
       x2="0.97000003"
       y1="0"
       x1="0.029999999">
      <stop
         id="stop3032"
         offset="0"
         style="stop-opacity:1;stop-color:#0098db" />
      <stop
         id="stop3034"
         offset="1"
         style="stop-opacity:1;stop-color:#0098db" />
    </linearGradient>
  </defs>
  <sodipodi:namedview
     id="base"
     pagecolor="#ffffff"
     bordercolor="#666666"
     borderopacity="1.0"
     inkscape:pageopacity="0.0"
     inkscape:pageshadow="2"
     inkscape:zoom="1"
     inkscape:cx="130.52483"
     inkscape:cy="234.15006"
     inkscape:document-units="px"
     inkscape:current-layer="layer1"
     showgrid="true"
     width="512px"
     inkscape:snap-global="false"
     showguides="false"
     inkscape:window-width="1366"
     inkscape:window-height="744"
     inkscape:window-x="0"
     inkscape:window-y="24"
     inkscape:window-maximized="1">
    <inkscape:grid
       type="xygrid"
       id="grid3197"
       empspacing="5"
       visible="true"
       enabled="true"
       snapvisiblegridlinesonly="true" />
  </sodipodi:namedview>
  <metadata
     id="metadata3171">
    <rdf:RDF>
      <cc:Work
         rdf:about="">
        <dc:format>image/svg+xml</dc:format>
        <dc:type
           rdf:resource="http://purl.org/dc/dcmitype/StillImage" />
        <dc:title></dc:title>
      </cc:Work>
    </rdf:RDF>
  </metadata>
  <g
     inkscape:label="Layer 1"
     inkscape:groupmode="layer"
     id="layer1"
     transform="translate(0,-540.36236)">
    <g
       transform="matrix(1.7916645,0,0,1.7916645,-470.90391,358.42221)"
       id="g3129">
      <g
         transform="matrix(1.25,0,0,-1.25,33.66704,1121.4005)"
         id="g3020">
        <g
           id="g3022">
          <g
             id="g3028">
            <path
               id="path3036"
               style="fill:url(#linearGradient3030);fill-rule:evenodd;stroke:none"
               d="m 297.6378,815.4354 c 62.8835,0 113.8606,-50.9774 113.8606,-113.8606 0,-62.8832 -50.9774,-113.8606 -113.8606,-113.8606 -62.8832,0 -113.8606,50.9774 -113.8606,113.8606 0,62.8832 50.9771,113.8606 113.8606,113.8606"
               inkscape:connector-curvature="0" />
          </g>
        </g>
      </g>
      <path
         id="path3038"
         style="fill:#ffffff;fill-opacity:1;fill-rule:evenodd;stroke:none"
         d="m 355.50166,200.04213 -10.08237,0 -16.2195,95.78275 -16.65788,-95.78275 -9.64375,0 20.82225,110.24862 10.73976,0 21.04149,-110.24862 z m 21.69888,44.98662 0,-14.73913 c 0,-7.014 0,-13.80862 6.57537,-18.63074 3.9455,-3.0685 8.76725,-3.0685 10.52075,-3.0685 4.60275,0 7.45225,1.31525 9.2055,2.63025 5.69875,3.94512 6.35638,9.86312 6.35638,16.2195 l 0,16.25662 9.42487,-0.72462 0,-16.40863 c 0,-4.38387 0,-8.32925 -1.53425,-12.71275 -3.83925,-10.45587 -12.65812,-14.46625 -23.4525,-14.46625 -12.274,0 -18.84925,5.47975 -21.91812,9.8635 -4.1645,5.47938 -4.60275,10.0825 -4.60275,16.65788 l 0,30.06487 9.42475,-10.942 z m 32.658,37.64512 c 0,5.041 -0.65763,7.45188 -1.53425,9.64375 -1.53425,3.72613 -5.26,9.42488 -15.1235,9.42488 -7.452,0 -13.37,-3.50675 -15.34262,-10.95913 -0.65763,-2.84912 -0.65763,-6.13699 -0.65763,-7.23287 l 0,-17.0845 -9.42475,0.68637 0,16.617 c 0,4.38388 0.21925,9.20588 1.9725,13.37038 3.72613,9.42487 14.02762,13.58925 23.4525,13.58925 4.822,0 19.94562,-1.31488 24.54837,-17.31538 1.31526,-4.3835 1.53426,-9.2055 1.53426,-14.24662 l 0,-24.98913 -9.42488,10.94213 0,17.55387 z m 38.576,27.61688 0,-154.74225 -9.2055,0 0,154.74225 9.2055,0 z m 51.06925,0 0,-8.76725 c -2.84912,0.219 -5.47925,0.43837 -8.3285,0.43837 -1.97288,0 -8.32925,0 -8.32925,-6.35637 l 0,-86.79613 16.65775,0 0,-8.76725 -16.65775,0 0,-28.4935 -9.42487,0 0,28.4935 -11.61638,0 0,8.76725 11.61638,0 0,88.988 c 0,3.50688 0.21937,6.137 2.63062,8.9865 4.16437,4.3835 11.39738,4.3835 23.452,3.50688 z M 367.43916,300.249 l -17.10075,28.13812 0.1325,0.49388 20.39388,-23.677 c -1.33688,-1.4645 -2.49525,-3.11425 -3.42563,-4.955 z m 52.11675,-90.63313 17.16475,-28.001 -0.10237,-0.38237 -20.24863,23.50812 c 1.22676,1.47438 2.29713,3.14638 3.18625,4.87525 z m -23.63037,38.54763 10.54812,-17.207 0,-3.51637 c 0,-3.36263 -0.12087,-6.69301 -1.48262,-9.48863 l -39.60563,45.98113 25.24113,-1.83863 -10.041,16.52237 0,4.93413 c 0,3.00438 0.10412,6.037 1.41087,8.73 l 39.70738,-46.0995 -25.77825,1.9825 z"
         inkscape:connector-curvature="0" />
    </g>
  </g>
</svg>
