<?xml version="1.0" encoding="UTF-8" standalone="no"?>
<!-- Created with Inkscape (http://www.inkscape.org/) -->

<svg
   xmlns:dc="http://purl.org/dc/elements/1.1/"
   xmlns:cc="http://creativecommons.org/ns#"
   xmlns:rdf="http://www.w3.org/1999/02/22-rdf-syntax-ns#"
   xmlns:svg="http://www.w3.org/2000/svg"
   xmlns="http://www.w3.org/2000/svg"
   xmlns:sodipodi="http://sodipodi.sourceforge.net/DTD/sodipodi-0.dtd"
   xmlns:inkscape="http://www.inkscape.org/namespaces/inkscape"
   width="512"
   height="512"
   id="svg4506"
   version="1.1"
   inkscape:version="0.48.3.1 r9886"
   sodipodi:docname="logo-black.svg">
  <defs
     id="defs4508" />
  <sodipodi:namedview
     id="base"
     pagecolor="#ffffff"
     bordercolor="#666666"
     borderopacity="1.0"
     inkscape:pageopacity="0.0"
     inkscape:pageshadow="2"
     inkscape:zoom="0.35"
     inkscape:cx="375"
     inkscape:cy="520"
     inkscape:document-units="px"
     inkscape:current-layer="layer1"
     showgrid="false"
     inkscape:window-width="1366"
     inkscape:window-height="744"
     inkscape:window-x="0"
     inkscape:window-y="24"
     inkscape:window-maximized="1" />
  <metadata
     id="metadata4511">
    <rdf:RDF>
      <cc:Work
         rdf:about="">
        <dc:format>image/svg+xml</dc:format>
        <dc:type
           rdf:resource="http://purl.org/dc/dcmitype/StillImage" />
        <dc:title></dc:title>
      </cc:Work>
    </rdf:RDF>
  </metadata>
  <g
     inkscape:label="Layer 1"
     inkscape:groupmode="layer"
     id="layer1"
     transform="translate(0,-540.36218)">
    <g
       id="g4478"
       transform="matrix(1.7916645,0,0,1.7916646,-2052.6878,-572.86818)">
      <path
         id="path3511"
         style="fill:#201f1f;fill-opacity:1;fill-rule:evenodd;stroke:none"
         d="m 1288.5714,621.89673 c 78.6044,0 142.3258,63.72174 142.3258,142.32575 0,78.60399 -63.7218,142.32574 -142.3258,142.32574 -78.604,0 -142.3257,-63.72175 -142.3257,-142.32574 0,-78.60401 63.7214,-142.32575 142.3257,-142.32575"
         inkscape:connector-curvature="0" />
      <path
         id="path3513"
         style="fill:#ffffff;fill-opacity:1;fill-rule:evenodd;stroke:none"
         d="m 1288.5714,629.69198 c -18.0102,0 -35.7711,3.55037 -52.3618,10.56762 -15.9702,6.75488 -30.5058,16.57588 -42.7657,28.83538 -12.2595,12.25987 -22.0805,26.7955 -28.8355,42.76562 -7.0171,16.59075 -10.5675,34.352 -10.5675,52.36188 0,18.01025 3.5504,35.77112 10.5675,52.362 6.755,15.97 16.576,30.50575 28.8355,42.7655 12.2599,12.2595 26.7955,22.0805 42.7657,28.8355 16.5907,7.01712 34.3516,10.5675 52.3618,10.5675 18.0103,0 35.7712,-3.55038 52.3619,-10.5675 15.9701,-6.755 30.5058,-16.576 42.7656,-28.8355 12.2595,-12.25975 22.0805,-26.7955 28.8355,-42.7655 7.0172,-16.59088 10.5675,-34.35175 10.5675,-52.362 0,-18.00988 -3.5503,-35.77113 -10.5675,-52.36188 -6.755,-15.97012 -16.576,-30.50575 -28.8355,-42.76562 -12.2598,-12.2595 -26.7955,-22.0805 -42.7656,-28.83538 -16.5907,-7.01725 -34.3516,-10.56762 -52.3619,-10.56762 z m 0,7.239 c -17.0326,0 -33.8506,3.359 -49.5418,9.996 -15.1072,6.39 -28.8694,15.68937 -40.4667,27.287 -11.5976,11.59725 -20.897,25.3595 -27.287,40.46675 -6.6366,15.69075 -9.996,32.50912 -9.996,49.54175 0,17.03275 3.359,33.85062 9.996,49.54187 6.39,15.10725 15.6894,28.86938 27.287,40.46663 11.5973,11.59762 25.3595,20.897 40.4667,27.287 15.6912,6.637 32.5092,9.996 49.5418,9.996 17.0327,0 33.8507,-3.359 49.5418,-9.996 15.1072,-6.39 28.8695,-15.68938 40.4667,-27.287 11.5977,-11.59725 20.897,-25.35938 27.287,-40.46663 6.637,-15.69125 9.996,-32.50912 9.996,-49.54187 0,-17.03263 -3.3593,-33.851 -9.996,-49.54175 -6.39,-15.10725 -15.6893,-28.8695 -27.287,-40.46675 -11.5972,-11.59763 -25.3595,-20.897 -40.4667,-27.287 -15.6911,-6.637 -32.5091,-9.996 -49.5418,-9.996"
         inkscape:connector-curvature="0" />
      <path
         id="path3515"
         style="fill:#ffffff;fill-opacity:1;fill-rule:evenodd;stroke:none"
         d="m 1238.3588,719.8326 -10.0824,0 -16.2195,95.78275 -16.6578,-95.78275 -9.6438,0 20.8223,110.24863 10.7397,0 21.0415,-110.24863 z m 144.0021,110.24863 0,-8.76725 c -2.8491,0.219 -5.4792,0.43837 -8.3285,0.43837 -1.9728,0 -8.3292,0 -8.3292,-6.35637 l 0,-86.79613 16.6577,0 0,-8.76725 -16.6577,0 0,-28.4935 -9.4249,0 0,28.4935 -11.6164,0 0,8.76725 11.6164,0 0,88.988 c 0,3.50688 0.2194,6.137 2.6306,8.98663 4.1644,4.38337 11.3974,4.38337 23.452,3.50675 z m -51.0692,0 0,-154.74225 -9.2055,0 0,154.74225 9.2055,0 z m -71.234,-65.262 0,-14.73913 c 0,-7.014 0,-13.80862 6.5754,-18.63075 3.9455,-3.0685 8.7672,-3.0685 10.5207,-3.0685 4.6028,0 7.4523,1.31525 9.2055,2.63025 5.6988,3.94513 6.3564,9.86313 6.3564,16.2195 l 0,16.25663 9.4249,-0.72463 0,-16.40862 c 0,-4.38375 0,-8.32926 -1.5343,-12.71275 -1.096,-2.8495 -2.8492,-5.918 -5.0411,-8.10988 -5.0414,-4.82213 -11.6168,-6.35637 -18.4114,-6.35637 -12.274,0 -18.8492,5.47974 -21.9181,9.8635 -4.1645,5.47937 -4.6028,10.08249 -4.6028,16.65787 l 0,30.06487 9.4248,-10.942 z m 32.658,37.64512 c 0,5.041 -0.6576,7.45188 -1.5343,9.64388 -1.5342,3.72612 -5.26,9.42475 -15.1235,9.42475 -7.452,0 -13.37,-3.50675 -15.3426,-10.959 -0.6576,-2.84925 -0.6576,-6.13713 -0.6576,-7.233 l 0,-17.08438 -9.4248,0.68625 0,16.61712 c 0,4.38376 0.2193,9.20588 1.9725,13.37026 3.7262,9.42487 14.0277,13.58937 23.4525,13.58937 4.822,0 19.9457,-1.315 24.5484,-17.3155 1.3153,-4.38337 1.5343,-9.2055 1.5343,-14.24662 l 0,-24.98913 -9.4249,10.94213 0,17.55387 z"
         inkscape:connector-curvature="0" />
      <path
         id="path3517"
         style="fill:#ffffff;fill-opacity:1;fill-rule:evenodd;stroke:none"
         d="m 1250.2963,820.03948 -17.1007,28.13812 0.1325,0.494 20.3938,-23.67712 c -1.3368,-1.4645 -2.4952,-3.11425 -3.4256,-4.955 z m 52.1168,-90.63313 17.1647,-28.001 -0.1024,-0.38237 -20.2486,23.50812 c 1.2268,1.47438 2.2971,3.14638 3.1863,4.87525 z m -23.6304,38.54763 10.5481,-17.207 0,-3.51638 c 0,-3.36262 -0.1209,-6.693 -1.4826,-9.48862 l -24.4055,28.334 -15.2001,17.64712 25.2411,-1.83862 -10.041,16.52237 0,4.93413 c 0,2.10725 0.091,4.35899 0.5587,6.41875 0.2254,0.83862 0.511,1.60825 0.8522,2.31125 l 35.4068,-41.10663 4.3005,-4.99287 -15.2301,1.17099 -10.5481,0.81151 z"
         inkscape:connector-curvature="0" />
    </g>
  </g>
</svg>
